HIERARCHY
ROOT Pelvis
{
	OFFSET 0.000000 0.941512 0.000000
	CHANNELS 6 Xposition Yposition Zposition Zrotation Yrotation Xrotation 
	JOINT Pelvis_L_Hip
	{
		OFFSET 0.000000 0.000000 0.000000
		CHANNELS 3 Zrotation Yrotation Xrotation
		JOINT L_Hip
		{
			OFFSET 0.062321 -0.080322 -0.016990
			CHANNELS 3 Zrotation Yrotation Xrotation
			JOINT L_Knee
			{
				OFFSET 0.093051 -0.381305 -0.029784
				CHANNELS 3 Zrotation Yrotation Xrotation
				JOINT L_Ankle
				{
					OFFSET -0.010371 -0.431000 -0.033614
					CHANNELS 3 Zrotation Yrotation Xrotation
					End Site #name: L_Foot
					{
						OFFSET 0.069299 -0.038670 0.119418
					}
				}
			}
		}
	}
	JOINT Pelvis_R_Hip
	{
		OFFSET 0.000000 0.000000 0.000000
		CHANNELS 3 Zrotation Yrotation Xrotation
		JOINT R_Hip
		{
			OFFSET -0.055334 -0.094904 -0.002373
			CHANNELS 3 Zrotation Yrotation Xrotation
			JOINT R_Knee
			{
				OFFSET -0.064207 -0.384370 -0.019592
				CHANNELS 3 Zrotation Yrotation Xrotation
				JOINT R_Ankle
				{
					OFFSET 0.025418 -0.419734 -0.065953
					CHANNELS 3 Zrotation Yrotation Xrotation
					End Site #name: R_Foot
					{
						OFFSET -0.057233 -0.039888 0.132134
					}
				}
			}
		}
	}
	JOINT Pelvis_Spine1
	{
		OFFSET 0.000000 0.000000 0.000000
		CHANNELS 3 Zrotation Yrotation Xrotation
		JOINT Spine1
		{
			OFFSET -0.005562 0.124093 -0.043360
			CHANNELS 3 Zrotation Yrotation Xrotation
			JOINT Spine2
			{
				OFFSET 0.012244 0.139499 0.029894
				CHANNELS 3 Zrotation Yrotation Xrotation
				JOINT Spine3
				{
					OFFSET -0.002556 0.056561 0.009225
					CHANNELS 3 Zrotation Yrotation Xrotation
					JOINT Spine3_Neck
					{
						OFFSET 0.000000 0.000000 0.000000
						CHANNELS 3 Zrotation Yrotation Xrotation
						JOINT Neck
						{
							OFFSET -0.005205 0.217920 -0.024551
							CHANNELS 3 Zrotation Yrotation Xrotation
							End Site #name: Head
							{
								OFFSET 0.002365 0.091850 0.046637
							}
						}
					}
					JOINT Spine3_L_Collar
					{
						OFFSET 0.000000 0.000000 0.000000
						CHANNELS 3 Zrotation Yrotation Xrotation
						JOINT L_Collar
						{
							OFFSET 0.072225 0.116603 -0.009480
							CHANNELS 3 Zrotation Yrotation Xrotation
							JOINT L_Shoulder
							{
								OFFSET 0.115937 -0.058643 -0.021018
								CHANNELS 3 Zrotation Yrotation Xrotation
								JOINT L_Elbow
								{
									OFFSET 0.021994 -0.254722 -0.024492
									CHANNELS 3 Zrotation Yrotation Xrotation
									End Site #name: L_Wrist
									{
										OFFSET 0.048810 -0.240214 0.103329
									}
								}
							}
						}
					}
					JOINT Spine3_R_Collar
					{
						OFFSET 0.000000 0.000000 0.000000
						CHANNELS 3 Zrotation Yrotation Xrotation
						JOINT R_Collar
						{
							OFFSET -0.073372 0.120704 -0.024611
							CHANNELS 3 Zrotation Yrotation Xrotation
							JOINT R_Shoulder
							{
								OFFSET -0.108089 -0.054969 -0.020504
								CHANNELS 3 Zrotation Yrotation Xrotation
								JOINT R_Elbow
								{
									OFFSET -0.033684 -0.260739 0.009889
									CHANNELS 3 Zrotation Yrotation Xrotation
									End Site #name: R_Wrist
									{
										OFFSET -0.067980 -0.232763 0.118463
									}
								}
							}
						}
					}
				}
			}
		}
	}
}
MOTION
Frames: 11
Frame Time: 0.041667
0.000000 1.025566 0.000000 1.439000 -7.144543 -1.790355 0.000000 0.000000 0.000000 -9.754496 2.373264 4.711798 9.350472 2.359413 -25.748109 54.993005 55.258495 130.134799 0.000000 0.000000 0.000000 3.607816 -1.488459 6.819055 -1.994587 -1.790817 -34.646242 -91.192924 -39.810803 141.972493 0.000000 0.000000 0.000000 1.557315 2.786925 -29.292663 -1.782731 -0.989221 -32.214242 6.303326 2.459573 75.751920 0.000000 0.000000 0.000000 -5.256549 -1.248495 -105.319739 0.000000 0.000000 0.000000 31.416941 7.051749 11.486782 -25.813298 -6.138759 -43.042907 -4.945362 18.424235 94.024292 0.000000 0.000000 0.000000 -31.784790 -4.360664 9.745354 24.911477 7.560210 -32.320661 15.593426 -24.611571 82.994210 
-0.002413 1.007489 0.006269 0.657209 -7.078926 -1.038645 0.000000 0.000000 0.000000 -8.809572 3.362898 7.881762 8.661507 3.143300 -32.421131 67.684923 53.523824 137.905566 0.000000 0.000000 0.000000 4.354033 -2.167747 9.859037 -1.211429 -1.892360 -40.404340 -95.359399 -39.631455 142.411058 0.000000 0.000000 0.000000 1.587476 3.189678 -32.520835 -2.119001 -0.953735 -28.850671 7.276584 0.969498 73.078629 0.000000 0.000000 0.000000 -13.336536 -4.470476 -102.020041 0.000000 0.000000 0.000000 29.056161 5.435235 9.675030 -25.218371 -5.810073 -41.599066 -2.341240 18.077641 96.789805 0.000000 0.000000 0.000000 -32.952385 -4.336009 10.245934 27.094742 8.047373 -31.642848 11.383406 -23.060691 83.147466 
-0.004247 0.971489 0.017523 0.184555 -7.564549 -0.404921 0.000000 0.000000 0.000000 -8.328785 5.241433 13.376504 7.842148 4.361537 -42.321136 80.743814 51.726427 141.127480 0.000000 0.000000 0.000000 3.425434 -3.010279 15.266341 1.911201 -1.242239 -49.652455 -104.273381 -38.847332 143.405104 0.000000 0.000000 0.000000 1.536953 3.490600 -34.709704 -1.271346 -0.838481 -28.384306 6.425902 1.485050 72.228301 0.000000 0.000000 0.000000 -8.756879 -2.072016 -100.307981 0.000000 0.000000 0.000000 30.973563 5.440626 10.044113 -26.304507 -5.289169 -38.734793 -9.444080 20.188631 92.177232 0.000000 0.000000 0.000000 -30.559863 -6.764001 11.710977 26.559013 7.783823 -30.823792 12.591976 -23.411063 82.676172 
-0.004898 0.945295 0.024679 -0.085899 -7.750153 -0.246515 0.000000 0.000000 0.000000 -7.578142 6.447386 17.184283 6.082762 4.699485 -49.014197 95.369810 50.074323 141.700629 0.000000 0.000000 0.000000 2.907363 -3.522378 18.847388 3.948115 -0.520040 -55.984834 -107.229641 -37.705150 144.870411 0.000000 0.000000 0.000000 2.116328 3.642212 -35.342131 -1.404703 -0.899833 -31.244682 5.607183 1.929767 74.584340 0.000000 0.000000 0.000000 -4.881449 -0.505966 -101.286574 0.000000 0.000000 0.000000 32.521842 6.137111 10.846095 -26.977095 -5.053277 -38.178083 -12.817748 21.727956 92.633645 0.000000 0.000000 0.000000 -29.348672 -6.646217 11.233741 26.240300 7.051820 -29.523097 13.519537 -23.764126 82.422708 
-0.006492 0.890917 0.036211 -1.086198 -8.315485 0.349820 0.000000 0.000000 0.000000 -5.344358 8.071265 23.352141 3.174658 4.973636 -60.842115 128.382478 39.843445 147.832174 0.000000 0.000000 0.000000 2.912899 -4.458437 24.512803 6.811369 1.082108 -66.629536 -137.701280 -44.213936 138.461356 0.000000 0.000000 0.000000 3.958020 3.971513 -36.058322 -3.120406 -1.182271 -35.443490 6.501266 1.683722 78.436847 0.000000 0.000000 0.000000 -1.618841 0.714791 -100.715327 0.000000 0.000000 0.000000 31.687967 6.347585 10.779370 -27.760206 -4.534000 -37.370492 -10.757256 21.359716 94.824788 0.000000 0.000000 0.000000 -28.770336 -6.767869 11.007487 25.359846 6.397007 -29.153963 12.298920 -24.639831 85.227828 
-0.008119 0.853839 0.036216 -1.750121 -8.433758 1.491974 0.000000 0.000000 0.000000 -4.162978 8.532299 25.645844 1.329117 4.776218 -67.798159 154.657594 35.947910 142.928489 0.000000 0.000000 0.000000 3.675207 -5.050652 26.661295 6.975435 1.525463 -73.186194 -162.263501 -49.779582 136.936841 0.000000 0.000000 0.000000 4.488212 4.381084 -38.184327 -3.214503 -1.154222 -34.138447 6.786916 0.456253 77.975390 0.000000 0.000000 0.000000 -9.295534 -2.319953 -100.453285 0.000000 0.000000 0.000000 28.445894 4.828396 8.867658 -25.828161 -3.931936 -36.159951 -11.111175 22.358164 95.874174 0.000000 0.000000 0.000000 -29.687039 -6.723121 11.393610 25.313244 6.473640 -29.401261 12.077776 -25.129774 86.894634 
-0.006856 0.812041 0.037302 -1.530483 -8.415761 3.037299 0.000000 0.000000 0.000000 -4.184546 9.277302 27.596337 -0.303464 4.510802 -75.415687 179.271703 41.435917 134.907462 0.000000 0.000000 0.000000 3.145786 -5.295435 29.003885 8.015053 2.565617 -80.891605 -173.077226 -50.826610 137.716635 0.000000 0.000000 0.000000 3.924766 4.680734 -40.511618 -3.480497 -1.165758 -33.237204 7.373896 -0.159874 78.212370 0.000000 0.000000 0.000000 -8.897634 -2.042442 -99.799450 0.000000 0.000000 0.000000 28.041133 1.527641 6.353504 -24.456710 -3.443553 -35.369503 -16.981952 25.315967 95.148926 0.000000 0.000000 0.000000 -30.459393 -6.505330 11.445348 24.373465 6.568045 -30.392332 14.503072 -26.106146 87.008360 
-0.008679 0.801705 0.032960 -1.674595 -8.758038 2.732759 0.000000 0.000000 0.000000 -3.041803 10.014403 30.752150 -2.525267 3.297612 -79.822899 154.800205 37.145342 142.067105 0.000000 0.000000 0.000000 3.043619 -5.588816 31.199491 9.984197 4.114776 -84.009876 -149.197037 -50.828595 134.833212 0.000000 0.000000 0.000000 4.809845 4.668411 -39.526622 -4.203066 -1.351970 -36.724426 7.489832 -0.146605 82.362143 0.000000 0.000000 0.000000 -6.966364 -1.510540 -101.054560 0.000000 0.000000 0.000000 31.295552 -0.061265 5.504961 -26.280608 -3.629339 -37.076488 -19.862212 26.410462 95.799317 0.000000 0.000000 0.000000 -30.379543 -3.890004 9.253035 24.920862 6.146927 -30.308795 11.241608 -25.793047 89.373712 
-0.008131 0.816654 0.020244 -1.929435 -8.594821 2.921728 0.000000 0.000000 0.000000 -3.446201 9.385136 28.617710 -2.016861 3.548566 -77.602755 150.450144 39.599072 141.664743 0.000000 0.000000 0.000000 4.275397 -5.703007 29.303687 8.469157 3.050624 -82.742173 -149.037783 -49.955926 135.387364 0.000000 0.000000 0.000000 8.119907 4.836839 -38.098166 -8.154988 -2.163164 -39.387362 9.344733 0.141558 85.052337 0.000000 0.000000 0.000000 -4.867295 -1.144967 -99.831716 0.000000 0.000000 0.000000 32.474451 -2.095196 4.234939 -24.844863 -3.320366 -37.806069 -23.278613 32.161745 104.074991 0.000000 0.000000 0.000000 -30.569471 -2.626717 7.890773 24.200000 5.807101 -30.471019 10.961746 -28.815067 97.488203 
-0.006700 0.861104 0.001199 -1.295678 -8.770649 2.250084 0.000000 0.000000 0.000000 -4.962189 8.288026 24.089059 1.412112 4.930413 -67.266454 136.840343 33.233081 150.574023 0.000000 0.000000 0.000000 5.173845 -5.031285 24.234946 5.404591 0.941132 -74.196522 -143.095488 -44.045593 138.850287 0.000000 0.000000 0.000000 6.866565 3.967360 -34.247823 -5.912618 -1.749773 -40.146623 8.884540 -0.242072 85.062773 0.000000 0.000000 0.000000 -11.844467 -3.924007 -99.794910 0.000000 0.000000 0.000000 33.911288 -2.206387 4.055675 -25.664090 -3.736140 -39.021858 -24.151573 33.206036 106.110693 0.000000 0.000000 0.000000 -33.915043 -1.720914 7.718261 25.145812 6.025262 -30.702239 10.772819 -29.795461 101.206685 
-0.004822 0.927553 -0.026571 0.444216 -8.610668 1.974172 0.000000 0.000000 0.000000 -7.874688 6.443433 16.728321 4.720309 5.141692 -54.732453 100.789935 40.884692 157.927357 0.000000 0.000000 0.000000 4.068719 -3.341131 16.461913 2.269088 -0.821861 -60.203840 -124.380980 -34.336626 146.611090 0.000000 0.000000 0.000000 4.447097 2.940239 -29.239364 -4.761738 -1.509385 -39.925653 8.128513 1.218169 81.927708 0.000000 0.000000 0.000000 0.163163 1.250995 -102.303418 0.000000 0.000000 0.000000 39.431747 -3.087875 3.622261 -28.036087 -3.932227 -37.325970 -22.492290 33.754866 110.677322 0.000000 0.000000 0.000000 -32.460815 -1.141622 7.073552 24.393639 5.928988 -29.637013 12.473114 -32.592564 105.619117 
